<?xml version="1.0" encoding="UTF-8" standalone="no"?>
<svg
   xmlns:dc="http://purl.org/dc/elements/1.1/"
   xmlns:cc="http://creativecommons.org/ns#"
   xmlns:rdf="http://www.w3.org/1999/02/22-rdf-syntax-ns#"
   xmlns:svg="http://www.w3.org/2000/svg"
   xmlns="http://www.w3.org/2000/svg"
   xmlns:sodipodi="http://sodipodi.sourceforge.net/DTD/sodipodi-0.dtd"
   xmlns:inkscape="http://www.inkscape.org/namespaces/inkscape"
   width="419.68945mm"
   height="180.00014mm"
   viewBox="0 0 419.68945 180.00014"
   version="1.1"
   id="svg8"
   inkscape:version="1.0.1 (c497b03c, 2020-09-10)"
   sodipodi:docname="logo.svg">
  <defs
     id="defs2" />
  <sodipodi:namedview
     id="base"
     pagecolor="#ffffff"
     bordercolor="#666666"
     borderopacity="1.0"
     inkscape:pageopacity="0.0"
     inkscape:pageshadow="2"
     inkscape:zoom="0.76"
     inkscape:cx="806.95452"
     inkscape:cy="214.46872"
     inkscape:document-units="mm"
     inkscape:current-layer="layer4"
     inkscape:document-rotation="0"
     showgrid="false"
     showborder="true"
     inkscape:window-width="1920"
     inkscape:window-height="1080"
     inkscape:window-x="1050"
     inkscape:window-y="298"
     inkscape:window-maximized="0"
     fit-margin-top="0"
     fit-margin-left="0"
     fit-margin-right="0"
     fit-margin-bottom="0" />
  <metadata
     id="metadata5">
    <rdf:RDF>
      <cc:Work
         rdf:about="">
        <dc:format>image/svg+xml</dc:format>
        <dc:type
           rdf:resource="http://purl.org/dc/dcmitype/StillImage" />
        <dc:title />
      </cc:Work>
    </rdf:RDF>
  </metadata>
  <g
     inkscape:groupmode="layer"
     id="layer4"
     inkscape:label="M"
     style="display:inline"
     transform="translate(2,-124.99998)">
    <rect
       style="fill:#333333;stroke-width:0.477549"
       id="rect89-6-5"
       width="20"
       height="140"
       x="-111.1308"
       y="124.99998"
       transform="scale(-1,1)" />
    <path
       id="rect89-8-3-8"
       style="fill:#333333;stroke-width:0.442124"
       d="m 88.708587,125 0.42219,0.29559 v 33.97052 l -33.56539,47.93661 v -34.86917 z" />
    <rect
       style="fill:#333333;stroke-width:0.477549"
       id="rect89-89"
       width="20"
       height="140"
       x="-2"
       y="125" />
    <path
       id="rect89-8-4"
       style="fill:#333333;stroke-width:0.442124"
       d="m 20.422187,125 -0.4222,0.29559 v 33.97053 l 33.5654,47.9366 v -34.86917 z" />
    <rect
       style="display:inline;fill:#333333;stroke-width:0.477549"
       id="rect89-89-8"
       width="20"
       height="140"
       x="260.7666"
       y="125" />
    <rect
       style="display:inline;fill:#333333;stroke-width:0.337678"
       id="rect89-89-8-3"
       width="20"
       height="70"
       x="-206.58542"
       y="282.68961"
       transform="rotate(-90)" />
    <rect
       style="display:inline;fill:#333333;stroke-width:0.477549"
       id="rect89-89-8-0"
       width="20"
       height="140"
       x="355.17505"
       y="125" />
    <rect
       style="display:inline;fill:#333333;stroke-width:0.541489"
       id="rect89-89-8-0-3"
       width="20"
       height="180"
       x="135.00003"
       y="125.00012" />
    <rect
       style="fill:#333333;stroke-width:0.453903"
       id="rect1022"
       width="261.10196"
       height="5"
       x="156.58751"
       y="300.00012" />
    <text
       xml:space="preserve"
       style="font-style:normal;font-weight:normal;font-size:19.7556px;line-height:1.25;font-family:sans-serif;fill:#000000;fill-opacity:1;stroke:none;stroke-width:0.264583"
       x="159.09814"
       y="295.21927"
       id="text1026"><tspan
         sodipodi:role="line"
         id="tspan1024"
         x="159.09814"
         y="295.21927"
         style="font-style:normal;font-variant:normal;font-weight:normal;font-stretch:normal;font-size:19.7556px;font-family:'Arial Black';-inkscape-font-specification:'Arial Black, ';fill:#333333;stroke-width:0.264583">libmrhpsb</tspan></text>
  </g>
  <g
     inkscape:groupmode="layer"
     id="layer3"
     inkscape:label="R"
     style="display:inline"
     transform="translate(2,-124.99998)">
    <path
       id="rect89-6-8-5-2-9"
       style="display:inline;fill:#333333;stroke-width:1.44715"
       d="m 510.23633,472.44141 v 75.58984 140.00391 75.58984 237.9492 h 75.58984 V 763.625 h 90.87891 V 688.03516 H 585.82617 V 548.03125 h 90.87891 v -75.58984 h -90.87891 z"
       transform="scale(0.26458333)" />
    <path
       id="path410"
       style="fill:#333333;stroke-width:0.114641"
       inkscape:transform-center-x="1.0240751"
       inkscape:transform-center-y="-2.0072388"
       d="m 230.99389,265.39653 -20.03934,-3.55049 13.09189,-15.59393 z m -83.25888,-82.98256 76.60444,64.27877 -12.85575,15.32089 -76.60445,-64.27877 z" />
    <rect
       style="fill:#333333;stroke-width:0.210734"
       id="rect669"
       width="20"
       height="20"
       x="178.51572"
       y="125.00012" />
    <rect
       style="display:inline;fill:#333333;stroke-width:0.210735"
       id="rect669-3"
       width="20"
       height="20"
       x="178.51572"
       y="182.04245" />
    <path
       id="path868"
       style="fill:#333333;stroke-width:0.251763"
       d="m 200.45749,125.2 v 38.20025 0.39998 38.19973 a 38.557999,38.600075 0 0 0 17.5741,-4.24212 6.9999999,7.0076519 0 0 0 5.86581,3.18327 6.9999999,7.0076519 0 0 0 7.00008,-7.00784 6.9999999,7.0076519 0 0 0 -1.79938,-4.68963 38.557999,38.600075 0 0 0 9.91569,-25.44341 h 0.002 a 38.557999,38.600073 0 0 0 -5.3e-4,-0.19999 38.557999,38.600075 0 0 0 5.3e-4,-0.19999 h -0.002 a 38.557999,38.600073 0 0 0 -9.91569,-25.44341 6.9999999,7.0076514 0 0 0 1.79938,-4.69015 6.9999999,7.0076514 0 0 0 -7.00008,-7.00732 6.9999999,7.0076514 0 0 0 -5.86581,3.18327 38.557999,38.600073 0 0 0 -17.5741,-4.24264 z m 16.54368,17.64957 a 5,5.0054652 0 0 1 0.002,0 5,5.0054652 0 0 1 5.3e-4,0 5,5.0054652 0 0 1 0.0196,0 5,5.0054652 0 0 1 4.9997,5.00538 5,5.0054652 0 0 1 -4.9997,5.0059 5,5.0054652 0 0 1 -5.0002,-5.0059 5,5.0054652 0 0 1 4.97798,-5.00538 z m 0.0217,31.49007 a 5,5.0054658 0 0 1 4.9997,5.00589 5,5.0054658 0 0 1 -4.9997,5.00538 5,5.0054658 0 0 1 -0.0196,0 h -5e-4 a 5,5.0054658 0 0 1 -4.98007,-5.00538 5,5.0054658 0 0 1 5.0002,-5.00589 z" />
  </g>
</svg>
